<?xml version="1.0" encoding="UTF-8" standalone="no"?>
<!-- Created with Inkscape (http://www.inkscape.org/) -->
<svg id="svg3962" xmlns:rdf="http://www.w3.org/1999/02/22-rdf-syntax-ns#" xmlns="http://www.w3.org/2000/svg" height="120.01" width="283.54" version="1.2" xmlns:cc="http://creativecommons.org/ns#" xmlns:dc="http://purl.org/dc/elements/1.1/">
	<metadata id="metadata3967">
		<rdf:RDF>
			<cc:Work rdf:about="">
				<dc:format>image/svg+xml</dc:format>
				<dc:type rdf:resource="http://purl.org/dc/dcmitype/StillImage"/>
				<dc:title/>
			</cc:Work>
		</rdf:RDF>
	</metadata>
	<g id="g3069" transform="matrix(0.74799929,0,0,0.74799929,0.00252656,3.0658255e-4)">
		<g id="g3922" transform="matrix(0.95490389,0,0,0.95490389,304.21329,36.33015)">
			<path id="path3920" d="m-223.92-2.2043c0,2.2145-1.7952,4.0097-4.0096,4.0097-2.2145,0-4.0097-1.7952-4.0097-4.0097s1.7952-4.0097,4.0097-4.0097,4.0096,1.7952,4.0096,4.0097z" stroke="#333" stroke-dasharray="none" stroke-miterlimit="4" stroke-width="3" fill="#333"/>
			<path id="path3918" d="m-272.27,32.248c38.18-29.56,38.18-29.56,38.18-29.56" stroke="#666" stroke-dasharray="none" stroke-miterlimit="4" stroke-width="3" fill="none"/>
			<path id="path3916" d="m-272.49,41.814c0,5.2122-4.2253,9.4375-9.4375,9.4375s-9.4375-4.2253-9.4375-9.4375,4.2253-9.4375,9.4375-9.4375,9.4375,4.2253,9.4375,9.4375z" stroke="#333" stroke-dasharray="none" stroke-miterlimit="4" stroke-width="3" fill="#333"/>
			<path id="path3914" d="m-281.93,82.168,0-27.307" stroke="#666" stroke-dasharray="none" stroke-miterlimit="4" stroke-width="3" fill="#666"/>
			<path id="path3867" d="m-260.59,107.12c0,11.785-9.5534,21.338-21.338,21.338s-21.338-9.5534-21.338-21.338,9.5533-21.338,21.338-21.338,21.338,9.5533,21.338,21.338z" stroke="#333" stroke-dasharray="none" stroke-miterlimit="4" stroke-width="3" fill="#333"/>
			<path id="path3869" fill="#0FF" d="m-254.68-38.046c1.7687,12.194-4.689,19.466,2.0171,27.461,4.9344,5.883,10.333,6.0045,17.943,4.7648-4.2912-0.78555-6.4579-1.716-9.1691-3.5629-6.1481-4.1883-3.7757-9.3358-7.1055-16.929,3.313,5.2055,2.3014,10.972,5.1624,13.957,3.529,3.6819,7.1968,3.9432,12.04,5.5398-13.76-11.727-1.66-17.26-20.88-31.231z"/>
			<g id="g3871" fill="#0FF" transform="matrix(1.368721,0,0,1.368721,-522.28183,80.637884)">
				<path id="path3873" fill="#0FF" d="m149.18-64.971c3.184,13.623-3.9046,19.421,2.2681,26.725,4.9776,5.8896,9.4353,5.1785,15.409,5.017,0,0-7.9801-3.124-10.249-7.8795-2.249-4.7133,2.5628-7.5506-3.5242-19.274,5.9562,9.7028,2.7633,14.566,4.005,18.275,1.7043,5.092,10.767,7.4603,10.767,7.4603-11.376-7.0351,1.7654-25.753-18.675-30.324z"/>
			</g>
		</g>
		<g id="flowRoot3877" style="letter-spacing:0px;word-spacing:0px;" line-height="125%" transform="matrix(0.99064723,0,0,0.99064723,-191.04519,-136.17608)" font-family="Sans" font-size="72px" font-weight="bold" font-style="normal">
			<path id="path3024" fill="#333" d="m346.2,175.52c-0.2667-2.72-1.2534-4.7466-2.96-6.08-1.7067-1.3333-4.2667-2-7.68-2-6.2934,0.00005-9.44,2.16-9.44,6.48-0.00001,1.5467,0.63999,2.8534,1.92,3.92,1.3333,1.0134,3.44,1.8667,6.32,2.56,3.4133,0.80004,6.3733,1.5467,8.88,2.24,2.5066,0.69337,4.8,1.4934,6.88,2.4,1.1733,0.48003,2.2666,1.0934,3.28,1.84,1.0666,0.69336,1.9466,1.5734,2.64,2.64,0.74662,1.0667,1.3333,2.3467,1.76,3.84,0.42662,1.4934,0.63996,3.3067,0.64,5.44-0.00004,2.56-0.53338,4.8267-1.6,6.8-1.0667,1.9733-2.5067,3.6533-4.32,5.04-1.8134,1.3333-3.9467,2.3467-6.4,3.04-2.4534,0.74667-5.04,1.12-7.76,1.12-7.7334,0-13.547-1.4933-17.44-4.48-3.8933-2.9867-5.9467-7.4133-6.16-13.28h10.72c0.0533,2.72,1.1466,4.88,3.28,6.48,2.1866,1.5467,4.9066,2.32,8.16,2.32,3.52,0.00001,6.1866-0.63999,8-1.92,1.8133-1.28,2.72-3.0133,2.72-5.2-0.00003-0.85331-0.1067-1.6266-0.32-2.32-0.21337-0.74665-0.64003-1.4133-1.28-2-0.5867-0.58664-1.4134-1.0933-2.48-1.52-1.0667-0.47998-2.4534-0.90664-4.16-1.28-4.0534-0.85331-7.5734-1.7066-10.56-2.56-2.9333-0.90664-5.36-2-7.28-3.28-1.92-1.3333-3.3333-2.9333-4.24-4.8-0.90667-1.8666-1.36-4.24-1.36-7.12,0-2.1866,0.4-4.24,1.2-6.16s2.0267-3.5733,3.68-4.96c1.6533-1.4399,3.68-2.5599,6.08-3.36,2.4533-0.85328,5.3333-1.2799,8.64-1.28,3.2,0.00006,6.08,0.42672,8.64,1.28,2.56,0.80006,4.7466,1.9734,6.56,3.52,1.8666,1.4934,3.3066,3.3334,4.32,5.52,1.0133,2.1334,1.5733,4.5067,1.68,7.12h-10.56"/>
			<path id="path3026" fill="#333" d="m386.97,189.44c-0.0534-1.44-0.32003-2.6933-0.8-3.76-0.42669-1.12-1.0134-2.0266-1.76-2.72-0.74669-0.74663-1.6-1.28-2.56-1.6-0.96002-0.3733-1.9467-0.55996-2.96-0.56-2.08,0.00004-3.8934,0.77337-5.44,2.32-1.4934,1.4934-2.3467,3.6-2.56,6.32h16.08m-16.4,6.56c0.15999,2.9867,1.0133,5.36,2.56,7.12,1.6,1.76,3.68,2.64,6.24,2.64,1.7066,0.00001,3.2-0.37332,4.48-1.12,1.3333-0.79999,2.1866-1.8933,2.56-3.28h10.72c-1.2267,4.0533-3.36,7.1733-6.4,9.36s-6.6667,3.28-10.88,3.28c-13.12,0-19.68-7.1467-19.68-21.44,0-3.04,0.42667-5.7866,1.28-8.24,0.85333-2.4533,2.08-4.56,3.68-6.32,1.6533-1.76,3.6533-3.0933,6-4,2.3466-0.95996,5.04-1.44,8.08-1.44,6.08,0.00004,10.667,1.9467,13.76,5.84,3.1466,3.8934,4.72,9.76,4.72,17.6h-27.12"/>
			<path id="path3028" fill="#333" d="m426.81,189.44c-0.0534-1.44-0.32003-2.6933-0.8-3.76-0.42669-1.12-1.0134-2.0266-1.76-2.72-0.74669-0.74663-1.6-1.28-2.56-1.6-0.96002-0.3733-1.9467-0.55996-2.96-0.56-2.08,0.00004-3.8934,0.77337-5.44,2.32-1.4934,1.4934-2.3467,3.6-2.56,6.32h16.08m-16.4,6.56c0.15999,2.9867,1.0133,5.36,2.56,7.12,1.6,1.76,3.68,2.64,6.24,2.64,1.7066,0.00001,3.2-0.37332,4.48-1.12,1.3333-0.79999,2.1866-1.8933,2.56-3.28h10.72c-1.2267,4.0533-3.36,7.1733-6.4,9.36s-6.6667,3.28-10.88,3.28c-13.12,0-19.68-7.1467-19.68-21.44,0-3.04,0.42667-5.7866,1.28-8.24,0.85333-2.4533,2.08-4.56,3.68-6.32,1.6533-1.76,3.6533-3.0933,6-4,2.3466-0.95996,5.04-1.44,8.08-1.44,6.08,0.00004,10.667,1.9467,13.76,5.84,3.1466,3.8934,4.72,9.76,4.72,17.6h-27.12"/>
			<path id="path3030" fill="#333" d="m459.38,205.52c2.5066,0.00001,4.5866-1.04,6.24-3.12,1.7066-2.08,2.56-4.8,2.56-8.16-0.00003-8.5333-2.9067-12.8-8.72-12.8-5.9734,0.00003-8.96,4.0534-8.96,12.16-0.00001,3.52,0.82665,6.4,2.48,8.64,1.6533,2.1867,3.7866,3.28,6.4,3.28m8.64,7.44-0.08-4.8c-2.4,3.8933-6.0534,5.84-10.96,5.84-2.5067,0-4.8-0.48-6.88-1.44s-3.8667-2.3467-5.36-4.16-2.6667-4.0266-3.52-6.64c-0.85334-2.6133-1.28-5.5733-1.28-8.88,0-2.9866,0.34667-5.7066,1.04-8.16,0.74666-2.5066,1.8133-4.6666,3.2-6.48,1.3867-1.8133,3.0667-3.2,5.04-4.16,2.0266-1.0133,4.32-1.52,6.88-1.52,4.8533,0.00004,8.7466,2.0534,11.68,6.16v-19.52h10.24v53.76h-10"/>
			<path id="path3032" fill="#333" d="m505.82,185.52c-0.26669-1.8133-0.96002-3.12-2.08-3.92-1.0667-0.8533-2.72-1.28-4.96-1.28-2.1334,0.00004-3.76,0.2667-4.88,0.8-1.0667,0.48003-1.6,1.3334-1.6,2.56-0.00001,1.0667,0.53332,1.92,1.6,2.56,1.12,0.64003,2.72,1.2534,4.8,1.84,3.4133,0.96003,6.2933,1.7867,8.64,2.48,2.3466,0.64003,4.2133,1.4134,5.6,2.32,1.44,0.90669,2.4533,2.0534,3.04,3.44,0.63996,1.3334,0.95996,3.1467,0.96,5.44-0.00004,3.52-1.4667,6.4533-4.4,8.8-2.9334,2.2933-7.28,3.44-13.04,3.44-2.8267,0-5.3867-0.32-7.68-0.96s-4.2667-1.5467-5.92-2.72c-1.6-1.2267-2.8533-2.6667-3.76-4.32-0.85333-1.7066-1.3067-3.6-1.36-5.68h10.72c-0.00001,1.8667,0.71999,3.3067,2.16,4.32,1.4933,1.0133,3.4133,1.52,5.76,1.52,1.9733,0.00001,3.6533-0.29332,5.04-0.88,1.44-0.63999,2.16-1.6,2.16-2.88-0.00003-1.44-0.53336-2.48-1.6-3.12-1.0134-0.63998-2.5867-1.2-4.72-1.68-3.84-0.85331-6.9334-1.7333-9.28-2.64-2.3467-0.95998-4.1867-2-5.52-3.12-1.28-1.12-2.16-2.3466-2.64-3.68-0.42667-1.3333-0.64-2.8266-0.64-4.48,0-1.4933,0.29333-2.9066,0.88-4.24,0.64-1.3333,1.6267-2.5066,2.96-3.52,1.3333-1.0133,3.0667-1.8133,5.2-2.4,2.1333-0.63996,4.7466-0.95996,7.84-0.96,5.6533,0.00004,9.7866,1.1467,12.4,3.44,2.6133,2.2934,4.0533,5.4667,4.32,9.52h-10"/>
			<path id="path3034" fill="#666" d="m565.49,182.48,10,0,0,14.32c-0.00004,2.72-0.45337,5.2-1.36,7.44-0.85337,2.1867-2.08,4.08-3.68,5.68-1.5467,1.5467-3.4134,2.7467-5.6,3.6-2.1867,0.85334-4.6134,1.28-7.28,1.28-3.04,0-5.7334-0.42666-8.08-1.28-2.3467-0.85333-4.3467-2.0267-6-3.52-1.6-1.4933-2.8267-3.2533-3.68-5.28-0.85334-2.0266-1.28-4.2133-1.28-6.56,0-1.2266,0.16-2.48,0.48-3.76,0.32-1.3333,0.74666-2.56,1.28-3.68,0.58666-1.12,1.28-2.1066,2.08-2.96,0.79999-0.8533,1.6533-1.4933,2.56-1.92-4.1067-2.1333-6.16-5.84-6.16-11.12,0-2.24,0.48-4.2666,1.44-6.08,0.96-1.8133,2.32-3.36,4.08-4.64,1.76-1.3333,3.8667-2.3466,6.32-3.04,2.4533-0.74661,5.1733-1.1199,8.16-1.12v8.72c-3.6267,0.00005-6.16,0.58671-7.6,1.76-1.44,1.12-2.16,2.9867-2.16,5.6-0.00001,2.24,0.74665,3.8934,2.24,4.96,1.4933,1.0667,4,1.6,7.52,1.6v7.52c-3.2,0.00003-5.68,0.66669-7.44,2-1.76,1.28-2.64,3.28-2.64,6-0.00001,1.12,0.15999,2.1867,0.48,3.2,0.37332,0.96001,0.90665,1.8134,1.6,2.56,0.74665,0.74668,1.6533,1.36,2.72,1.84,1.12,0.42668,2.4533,0.64001,4,0.64,5.3333,0.00001,8-3.1466,8-9.44v-14.32"/>
		</g>
		<g id="flowRoot3889" style="letter-spacing:0px;word-spacing:0px;" line-height="125%" transform="matrix(0.99064723,0,0,0.99064723,-174.76267,-57.287869)" font-family="Sans" font-size="40px" font-weight="normal" font-style="normal" fill="#333">
			<path id="path3037" d="m345.76,199.69c-0.58671,3.04-1.52,5.7867-2.8,8.24s-2.9067,4.56-4.88,6.32c-1.92,1.76-4.16,3.12-6.72,4.08s-5.3867,1.44-8.48,1.44c-3.4667,0-6.72-0.58666-9.76-1.76-2.9867-1.1733-5.5733-2.9333-7.76-5.28s-3.92-5.2266-5.2-8.64c-1.2267-3.4666-1.84-7.4933-1.84-12.08,0-4.48,0.56-8.5066,1.68-12.08,1.1733-3.6266,2.8267-6.6666,4.96-9.12,2.1333-2.5066,4.72-4.4266,7.76-5.76,3.0933-1.3333,6.5333-1.9999,10.32-2,3.3066,0.00006,6.2933,0.50672,8.96,1.52,2.72,0.96006,5.04,2.32,6.96,4.08,1.9733,1.7067,3.52,3.7334,4.64,6.08,1.1733,2.3467,1.8933,4.8534,2.16,7.52h-11.12c-0.7467-3.04-2.1867-5.3866-4.32-7.04-2.1334-1.7066-4.5334-2.56-7.2-2.56-4.64,0.00005-8.0534,1.68-10.24,5.04-2.1867,3.3067-3.28,7.8667-3.28,13.68-0.00001,5.92,1.0666,10.533,3.2,13.84,2.1866,3.2534,5.44,4.88,9.76,4.88,3.3066,0.00001,5.9466-0.87999,7.92-2.64,2.0266-1.8133,3.4133-4.4,4.16-7.76h11.12"/>
			<path id="path3039" d="m348.04,217.93,0-39.36,10.4,0,0,39.36-10.4,0m0-44.08,0-9.68,10.4,0,0,9.68-10.4,0"/>
			<path id="path3041" d="m362.8,217.93,0-39.36,9.76,0,0,4.72c0.85332-1.3333,1.7333-2.3733,2.64-3.12,0.95998-0.74662,1.92-1.3066,2.88-1.68,1.0133-0.42662,2.0266-0.69329,3.04-0.8,1.0133-0.10662,2.0533-0.15996,3.12-0.16h1.36v10.64c-0.96002-0.15997-1.92-0.23997-2.88-0.24-6.3467,0.00003-9.52,3.1734-9.52,9.52v20.48h-10.4"/>
			<path id="path3043" d="m421.99,203.69c-0.2667,2.2934-0.93337,4.3734-2,6.24-1.0134,1.8667-2.32,3.4667-3.92,4.8s-3.44,2.3733-5.52,3.12c-2.0267,0.74667-4.24,1.12-6.64,1.12-2.6667,0-5.12-0.42666-7.36-1.28-2.1867-0.90666-4.08-2.24-5.68-4-1.6-1.8133-2.8533-4.0267-3.76-6.64-0.85334-2.6666-1.28-5.76-1.28-9.28s0.42666-6.56,1.28-9.12c0.90666-2.56,2.16-4.64,3.76-6.24,1.6-1.6533,3.52-2.88,5.76-3.68,2.2933-0.79996,4.8266-1.2,7.6-1.2,2.56,0.00004,4.88,0.34671,6.96,1.04,2.1333,0.69338,3.9733,1.7067,5.52,3.04,1.6,1.3334,2.8533,2.9334,3.76,4.8,0.90663,1.8667,1.44,3.9467,1.6,6.24h-10.48c-0.26669-2.0266-1.0934-3.6-2.48-4.72-1.3334-1.1733-2.9867-1.76-4.96-1.76-1.12,0.00004-2.16,0.1867-3.12,0.56-0.96002,0.37337-1.8134,1.0134-2.56,1.92-0.69335,0.85337-1.2534,2.0267-1.68,3.52-0.42668,1.44-0.64001,3.2267-0.64,5.36-0.00001,4.32,0.77332,7.52,2.32,9.6,1.5466,2.08,3.3333,3.12,5.36,3.12,2.0266,0.00001,3.76-0.55999,5.2-1.68s2.2666-2.7466,2.48-4.88h10.48"/>
			<path id="path3045" d="m450.27,217.93,0-5.52c-2.6667,4.3733-6.7467,6.56-12.24,6.56-1.9734,0-3.7867-0.34666-5.44-1.04-1.6-0.69333-2.9867-1.68-4.16-2.96s-2.1067-2.8-2.8-4.56c-0.64-1.76-0.96-3.7333-0.96-5.92v-25.92h10.4v24.32c-0.00001,4.9067,2.2133,7.36,6.64,7.36,2.6666,0.00001,4.6666-0.82665,6-2.48,1.3866-1.7066,2.08-3.8666,2.08-6.48v-22.72h10.32v39.36h-9.84"/>
			<path id="path3047" d="m464.44,217.93,0-39.36,10.4,0,0,39.36-10.4,0m0-44.08,0-9.68,10.4,0,0,9.68-10.4,0"/>
			<path id="path3049" d="m501.52,192.01,9.68,0,0,11.2c-0.00003,2.08-0.32003,4.08-0.96,6-0.5867,1.8667-1.5467,3.5467-2.88,5.04-1.28,1.44-2.9334,2.5867-4.96,3.44-1.9734,0.85334-4.3467,1.28-7.12,1.28-2.88,0-5.3334-0.42666-7.36-1.28-2.0267-0.85333-3.7067-2-5.04-3.44-1.28-1.44-2.2133-3.12-2.8-5.04-0.58667-1.92-0.88-3.9466-0.88-6.08v-35.2h10.24v10.64h21.76v7.36h-21.76v16.16c-0.00001,2.5067,0.45332,4.4534,1.36,5.84,0.95999,1.3334,2.5066,2,4.64,2,2.08,0.00001,3.6-0.66665,4.56-2,1.0133-1.3333,1.52-3.2266,1.52-5.68v-10.24"/>
			<path id="path3051" d="m538.67,190.49c-0.26669-1.8133-0.96002-3.12-2.08-3.92-1.0667-0.8533-2.72-1.28-4.96-1.28-2.1334,0.00004-3.76,0.2667-4.88,0.8-1.0667,0.48003-1.6,1.3334-1.6,2.56-0.00001,1.0667,0.53332,1.92,1.6,2.56,1.12,0.64003,2.72,1.2534,4.8,1.84,3.4133,0.96003,6.2933,1.7867,8.64,2.48,2.3466,0.64003,4.2133,1.4134,5.6,2.32,1.44,0.90669,2.4533,2.0534,3.04,3.44,0.63996,1.3334,0.95996,3.1467,0.96,5.44-0.00004,3.52-1.4667,6.4533-4.4,8.8-2.9334,2.2933-7.28,3.44-13.04,3.44-2.8267,0-5.3867-0.32-7.68-0.96s-4.2667-1.5467-5.92-2.72c-1.6-1.2267-2.8533-2.6667-3.76-4.32-0.85333-1.7066-1.3067-3.6-1.36-5.68h10.72c-0.00001,1.8667,0.71999,3.3067,2.16,4.32,1.4933,1.0133,3.4133,1.52,5.76,1.52,1.9733,0.00001,3.6533-0.29332,5.04-0.88,1.44-0.63999,2.16-1.6,2.16-2.88-0.00003-1.44-0.53336-2.48-1.6-3.12-1.0134-0.63998-2.5867-1.2-4.72-1.68-3.84-0.85331-6.9334-1.7333-9.28-2.64-2.3467-0.95998-4.1867-2-5.52-3.12-1.28-1.12-2.16-2.3466-2.64-3.68-0.42667-1.3333-0.64-2.8266-0.64-4.48,0-1.4933,0.29333-2.9066,0.88-4.24,0.64-1.3333,1.6267-2.5066,2.96-3.52,1.3333-1.0133,3.0667-1.8133,5.2-2.4,2.1333-0.63996,4.7466-0.95996,7.84-0.96,5.6533,0.00004,9.7866,1.1467,12.4,3.44,2.6133,2.2934,4.0533,5.4667,4.32,9.52h-10"/>
		</g>
	</g>
</svg>
